<?xml version="1.0" encoding="utf-8"?>
<!-- Generator: Adobe Illustrator 24.0.0, SVG Export Plug-In . SVG Version: 6.00 Build 0)  -->
<svg version="1.1" id="Layer_1" xmlns="http://www.w3.org/2000/svg" xmlns:xlink="http://www.w3.org/1999/xlink" x="0px"
     y="0px"
     viewBox="0 0 900 900" style="enable-background:new 0 0 900 900;" xml:space="preserve">
<style type="text/css">
	.st0{font-family:'Arial-BoldMT';}
	.st1{font-size:49.0325px;}
</style>
  <g>
	<g>
		<path fill="#bbdefb" d="M449.92,374.68c-0.71,0-4.98-0.19-6.46,3.66l-17.39,76.87v0.22h23.85h23.85v-0.22l-17.62-77.19
			C454.87,374.4,450.44,374.68,449.92,374.68z"/>
    <g>
			<rect fill="#bbdefb" x="224.23" y="669.68" width="40.05" height="37.09"/>
      <rect fill="#bbdefb" x="635.55" y="669.68" width="40.05" height="37.09"/>
      <path fill="#bbdefb" d="M708.2,715.96c-6.81-2.7-9.54-10.31-10.61-15.15v-50.18h-77.81c-2.81-12.13-7.26-23.7-14.21-32.39
				c-15.72-19.64-33.41-30.02-47.49-36.79L454.02,126.67V92.53h19.42v-7.88h-19.42v-18.6h-8.21v18.6h-19.75v7.88h19.75v34.14
				L341.75,581.46c-14.08,6.76-31.77,17.14-47.49,36.79c-6.95,8.69-11.4,20.26-14.21,32.39h-77.81v50.18
				c-1.07,4.84-3.8,12.45-10.61,15.15h-5.8v0.98v8.86h19.37h78.13h333.19h78.13h19.37h0.16v-9.85H708.2z M273.8,715.96h-60.07
				v-55.15h60.07V715.96z M449.75,147.08l98.43,429.86c-3.65-1.63-6.82-3.05-9.36-4.42c-1.34-0.73-2.99-1.58-4.89-2.58L449.92,185.1
				L365.9,569.93c-1.9,1-3.55,1.85-4.89,2.58c-2.54,1.38-5.72,2.8-9.36,4.42L449.75,147.08z M516.71,560.04
				c-17.42-11.18-39.47-29.61-52.51-59.53c-7-15.32-14.28-31.95-14.28-31.95s-7.28,16.63-14.28,31.95
				c-13.04,29.92-35.09,48.35-52.51,59.53l66.79-309.28L516.71,560.04z M582.35,715.96H317.49c-0.94-9.16-1.9-29.34,5.22-45.3
				c9.52-21.34,25.28-31.84,48.26-39.72c22.98-7.88,64.67-22.65,78.95-41.69c14.28,19.04,55.97,33.81,78.95,41.69
				c22.98,7.88,38.74,18.38,48.26,39.72C584.24,686.62,583.28,706.8,582.35,715.96z M610.92,715.96h-7.15
				c-0.03-12.54-1.21-45.91-12.53-63.03c-14.12-21.34-29.54-29.54-46.94-37.09s-42.02-15.1-63.68-27.9
				c-21.67-12.8-30.69-39.72-30.69-39.72s-9.03,26.92-30.69,39.72c-21.67,12.8-46.29,20.35-63.68,27.9
				c-17.4,7.55-32.83,15.76-46.94,37.09c-11.32,17.11-12.51,50.48-12.53,63.03h-7.15c-0.98-23.16-0.63-31.39,3.82-57.88
				c7.22-33.7,25.82-45.08,39.83-54.93c14.01-9.85,32.39-15.54,64.56-34.36s52.8-61.06,52.8-61.06s20.63,42.24,52.8,61.06
				s50.55,24.51,64.56,34.36c14.01,9.85,32.61,21.23,39.83,54.93C611.55,684.58,611.9,692.8,610.92,715.96z M686.11,715.96h-60.07
				v-55.15h60.07V715.96z"/>
		</g>
    <rect fill="#bbdefb" x="185.83" y="732.7" width="528.35" height="15.76"/>
	</g>
</g>
</svg>
