<svg version="1.2" xmlns="http://www.w3.org/2000/svg" viewBox="0 0 163 163" width="512" height="512">
    <path
        d="m95.6 123.8c0.5 1.5 0.9 3.2 0.9 4.9 0 8.8-7.2 15.9-16 15.9-8.8 0-15.9-7.1-15.9-15.9 0-1.7 0.3-3.4 0.8-4.9-27.6 1.8-45.9 8.3-45.9 14.3 0 6.3 22.8 12.8 60.8 12.8 38.1 0 60.8-6.5 60.8-12.8 0-6-18.1-12.5-45.5-14.3z" />
    <path
        d="m80.3 110.3c-35.8 0-60.8 7.8-60.8 14.9v6.3c9.6-7.8 35.8-12 60.8-12 25 0 51.3 4.2 60.8 12v-6.3c0-7.1-25-14.9-60.8-14.9z" />
    <path d="m17.7 138.1z" />
    <path d="m143 138.1z" />
    <path fill-rule="evenodd"
        d="m130.6 113.3c-12.6-4.4-31.7-6.7-50.3-6.7-17.3 0-35.2 2-47.8 5.8 2.6-6.2 5-14.4 6.2-24.9 0-0.5 0.8-55.5 34.5-61.7h0.2q2.6-0.5 5.2-0.5l1.3-0.1q1.4 0 2.9 0c3.6 0 6.5 0.3 8.8 0.9h-0.1l2.5 0.9c29.4 9.8 30.2 60 30.2 60.7 1.2 10.9 3.7 19.3 6.4 25.6zm-48.8-84.6c0 0-27.5 1.3-33.6 28.9 0 0-1.7 6.9-4.4 25.6 0 0-3.2 19.1-6.7 25.2 12.6-4.8 17.1-48.5 17.1-48.5 4.1-24.7 27.6-31.2 27.6-31.2z" />
    <path
        d="m72.6 21.7c2-0.3 3.9-0.5 5.8-0.5 0.8-1.2 2-2 3.4-2 1.5 0 2.7 0.8 3.4 1.9q3.9 0.2 6.7 0.9c-0.7-5-4.9-8.9-10.1-8.9-5.1 0-9.3 3.8-10 8.8z" />
    <path
        d="m80.3 123.3c-3.7 0-7.3 0.1-10.8 0.2-0.8 1.6-1.2 3.3-1.2 5.2 0 6.7 5.5 12.2 12.2 12.2 6.7 0 12.2-5.5 12.2-12.2 0-1.9-0.4-3.6-1.1-5.1q-5.5-0.3-11.3-0.3z" />
</svg>