<svg version="1.2" xmlns="http://www.w3.org/2000/svg" viewBox="0 0 215 215" width="512" height="512">
    <path d="m133.9 99c6.6 0 12-5.3 12-12 0-5.1-7.6-18.9-12-26.3-4.4 7.4-12 21.2-12 26.3 0 6.7 5.4 12 12 12z" />
    <path
        d="m133.9 118.9c11.1 0 18.5-3.5 19.2-6.1-0.7-2.3-6.5-5.2-15.6-5.8v5.8c0 2-1.6 3.6-3.6 3.6-1.9 0-3.5-1.6-3.5-3.6v-5.8c-9.1 0.6-15 3.5-15.6 5.8 0.7 2.6 8 6.1 19.1 6.1z" />
    <path
        d="m132.2 102.6v10.2c0 0.9 0.8 1.7 1.7 1.7 1 0 1.7-0.8 1.7-1.7v-10.2c-0.5 0.1-1.1 0.2-1.7 0.2-0.6 0-1.1-0.1-1.7-0.2z" />
    <path d="m88.6 62.7c6.6 0 12-5.4 12-12 0-5.1-7.6-19-12-26.3-4.4 7.3-12 21.2-12 26.3 0 6.6 5.4 12 12 12z" />
    <path
        d="m88.6 82.5c11 0 18.4-3.4 19.1-6-0.6-2.3-6.5-5.2-15.6-5.9v5.8c0 2-1.6 3.6-3.5 3.6-2 0-3.6-1.6-3.6-3.6v-5.8c-9.1 0.7-15 3.6-15.6 5.9 0.7 2.6 8.1 6 19.2 6z" />
    <path fill-rule="evenodd"
        d="m153.1 117.4v77c0 2.7-7.4 6.5-19.2 6.5-11.7 0-19.2-3.8-19.2-6.5v-77c4.4 2.9 11.9 4.4 19.2 4.4 7.3 0 14.9-1.5 19.2-4.4zm-4.2 75.8c0 0-20.3 1.2-24.1-8.2l-6.1-61.6v66.3c0 0 7 9.9 30.2 3.5z" />
    <path fill-rule="evenodd"
        d="m88.6 85.5c7.3 0 14.8-1.5 19.2-4.4v104.3c0 2.7-7.5 6.5-19.2 6.5-11.8 0-19.3-3.8-19.3-6.5v-104.3c4.4 2.9 12 4.4 19.3 4.4zm12.3 100.6c-5.8 0-18.4-1-21.4-8.2l-3.8-39.3-3.5-52.1v96.1c0 0 4.1 5.8 16.4 5.6 4 0.1 9-0.5 15.1-2.2 0 0-0.6 0.1-1.5 0.1q0.1 0 0.2 0c0 0-0.6 0-1.5 0z" />
    <path
        d="m86.9 66.3v10.1c0 1 0.7 1.7 1.7 1.7 0.9 0 1.7-0.7 1.7-1.7v-10.1c-0.6 0-1.2 0.1-1.7 0.1-0.6 0-1.2-0.1-1.7-0.1z" />
    <path
        d="m190.5 36.9c-15.2 4-18.5 7.3-22.5 22.5-4-15.2-7.3-18.5-22.4-22.5 15.1-4 18.4-7.3 22.4-22.4 4 15.1 7.3 18.4 22.5 22.4z" />
    <path
        d="m53.9 68.6c-11.2 3-13.6 5.4-16.5 16.6-3-11.2-5.4-13.6-16.6-16.6 11.2-2.9 13.6-5.3 16.6-16.5 2.9 11.2 5.3 13.6 16.5 16.5z" />
</svg>