<svg version="1.2" xmlns="http://www.w3.org/2000/svg" viewBox="0 0 241 241" width="241" height="241">
      <title>chen thanh</title>
      <g id="_Artboards_">
      </g>
      <g id="Layer 1">
            <g id="&lt;Group&gt;">
                  <g id="&lt;Group&gt;">
                  </g>
                  <g id="&lt;Group&gt;">
                        <g id="&lt;Group&gt;">
                              <g id="&lt;Group&gt;" style="display: none">
                                    <path id="&lt;Path&gt;"
                                          d="m120.2-20.7c-79.5 0-144 64.5-144 144 0 79.6 64.5 144 144 144 79.5 0 144-64.4 144-144 0-79.5-64.5-144-144-144z" />
                              </g>
                              <g id="&lt;Group&gt;">
                                    <path id="&lt;Path&gt;"
                                          d="m106.4 157.5c-1.7 1.1-4.2 3.9-3.3 7.1 0.1 0.4 2.1 7.6 15.2 8.7v0.3l2-0.1 2 0.1v-0.3c13-1.1 15-8.3 15.1-8.6 0.9-3.3-1.6-6.1-3.2-7.2l-2.4-1.6c-1.8-2.1-2.4-5.9-2.5-7.2-0.3-5.2 0.9-9 2.5-11.8-3.9 0.6-7.8 0.9-11.6 0.9-4.1 0-7.8-0.3-11.4-0.8 1.5 2.7 2.7 6.5 2.4 11.6-0.1 1.4-0.7 5.2-2.5 7.3z" />
                                    <path id="&lt;Path&gt;"
                                          d="m94.1 73.7c-3.7-4.6-6.2-10-7.1-15.8-10.6 1.9-17.4 4.5-17.4 7.4 0 3.5 9.9 6.6 24.5 8.4z" />
                                    <path id="&lt;Path&gt;"
                                          d="m171 65.3c0-2.9-7.1-5.6-18.1-7.5-0.9 5.9-3.4 11.4-7.1 16 14.9-1.8 25.2-4.9 25.2-8.5z" />
                                    <path id="&lt;Compound Path&gt;" fill-rule="evenodd"
                                          d="m98 72.5c-5.3-5.9-8-13.5-7.6-21.4 0.4-7.9 3.8-15.2 9.7-20.5 5.4-4.9 12.5-7.6 19.9-7.6 8.3 0 16.3 3.5 22 9.7 5.3 5.9 8 13.5 7.6 21.4-0.4 7.7-3.7 14.8-9.5 20.3-6.2 0.5-12.8 0.8-19.8 0.8-7.3 0-14.2-0.3-20.5-0.9q-1-0.8-1.8-1.8zm8.6-25.9h9.8v23h6.7v-23h10.2v-6.6h-10.2v-10h-6.7v10h-9.8z" />
                                    <path id="&lt;Compound Path&gt;" fill-rule="evenodd"
                                          d="m174.6 67v0.7c0 54.8-29.6 66.4-54.4 66.4-36.1 0-54.5-22.4-54.5-66.4v-1.3h0.1c0 13.2 48.9 13.6 54.5 13.6 5.4 0 52.8-0.4 54.3-13zm-44.7 61.2c-25.8-1.3-41.2-12.6-43.8-42-4.2-0.6-7.5-1.3-9.7-2 2.4 34 22.5 44.2 46.9 44.2q3.4 0 6.6-0.2z" />
                                    <path id="&lt;Compound Path&gt;" fill-rule="evenodd"
                                          d="m159.5 208.7c0 9.7-20.2 14.9-39.1 15h-0.1c-19.1-0.1-39.3-5.3-39.3-15 0-6.8 10.7-12.4 27.3-14.3 4-6.2 2.5-14.4 1.3-18.9 2.1 1 4.9 1.9 8.7 2.2v0.2l2-0.1 2 0.1v-0.2c3.7-0.3 6.5-1.2 8.6-2.2-1.2 4.3-2.7 12.6 1.4 18.9 16.5 1.9 27.2 7.5 27.2 14.3zm-8.9-1.1q0-0.5-0.1-1.1c-1.5 5.2-13.1 9.3-27.1 9.3-15 0-27.2-4.7-27.2-10.4 0-2.2 1.7-4.1 4.6-5.8-6.8 1.9-11.1 4.8-11.1 8 0 5.8 13.7 10.4 30.5 10.4 16.8 0 30.4-4.6 30.4-10.4z" />
                              </g>
                        </g>
                        <g id="&lt;Group&gt;">
                              <g id="&lt;Group&gt;">
                              </g>
                              <g id="&lt;Group&gt;">
                                    <path id="&lt;Path&gt;"
                                          d="m400.3 377.8v138.2c0 7.1 2.7 10.1 8.2 10.1v-158.3c-5.5 0-8.2 4.4-8.2 10z" />
                                    <path id="&lt;Compound Path&gt;" fill-rule="evenodd"
                                          d="m510.7 512.5h-0.2-98.1v-144.9h95.4 2.9zm-91.8-14.1h82.1v-121.7h-82.1z" />
                                    <path id="&lt;Path&gt;" d="m491.5 532.4l3.9-2.6 4.1 2.6v-13.4h-8z" />
                                    <path id="&lt;Compound Path&gt;" fill-rule="evenodd"
                                          d="m423.4 381.1h73.1v112.8h-73.1zm15.2 35h14.9v34.8h10.1v-34.8h15.5v-10h-15.5v-15.1h-10.1v15.1h-14.9z" />
                                    <path id="&lt;Path&gt;"
                                          d="m507.7 520.6c0-2.6 0.7-4.6 1.4-4.6h-96.7v8.2 1 1h77.2v-1-1-2.4-0.7-1.7-0.8-1.4-0.1h11.8v1.5 0.8 1.7 4.1 1h9.1v-2h-2.2c-0.3-0.9-0.6-2.1-0.6-3.6z" />
                              </g>
                        </g>
                        <g id="&lt;Group&gt;">
                              <g id="&lt;Group&gt;">
                              </g>
                              <g id="&lt;Group&gt;">
                                    <path id="&lt;Path&gt;" d="m837.5 224.7h-67.4v-12.3h67.4z" />
                                    <path id="&lt;Compound Path&gt;" fill-rule="evenodd"
                                          d="m860 130.3c-4.1 39.5-22.5 74.9-22.5 74.9h-67.4c0 0-18.4-35.4-22.5-74.9 0 0 5.1-21.8 56-62l0.2-0.1 0.2 0.1c50.9 40.2 56 62 56 62zm-35.3-8.5h-15.1v-14.7h-9.8v14.7h-14.5v9.8h14.5v33.9h9.8v-33.9h15.1z" />
                                    <path id="&lt;Path&gt;"
                                          d="m861 107.1c0 0-5.2-22.2-57-63.2l-0.2-0.1-0.2 0.1c-51.8 41-57 63.2-57 63.2 0 0-1.7 2.9-0.3 14.2l0.3 1c0 0 5.2-22.2 57-63.1l0.2-0.1 0.2 0.1c51.8 40.9 57 63.1 57 63.1l0.2-0.9c0.8-8.4-0.2-14.3-0.2-14.3z" />
                                    <g id="&lt;Group&gt;">
                                          <path id="&lt;Path&gt;"
                                                d="m803.6 34.4l0.2-0.1 0.2 0.1c51.8 40.9 57 63.1 57 63.1 0 0 0.1 0.3 0.1 0.7 0.2-5.4-1.9-32.5-57.1-76.1l-0.2-0.1-0.2 0.1c-61.9 48.9-57 75.4-57 75.4 0 0 5.2-22.2 57-63.1z" />
                                    </g>
                              </g>
                        </g>
                        <g id="&lt;Group&gt;">
                              <g id="&lt;Group&gt;">
                              </g>
                              <g id="&lt;Group&gt;">
                                    <path id="&lt;Path&gt;"
                                          d="m1126.1 108.9q0.3 0.2 0.7 0.5c0.6-0.2 3-1.1 8.2-6.8l28-29.6c0.2-0.3 4.4-4.6 9.4-6.4l4.2-4.2c1.9-2.4 2.1-4 2-4.7-0.1-1.1-0.9-1.6-0.9-1.7-5.2-4.3-13.9 4.5-14 4.6l-26.4 28.8c-0.1 0.2-0.3 0.2-0.4 0.3-1 4.2-3.3 8.4-7 12.8-2.5 2.6-4.1 5.6-3.8 6.4z" />
                                    <path id="&lt;Path&gt;"
                                          d="m1108 98l20.9-24.2c0.4-0.6 1-0.8 1.7-0.7 1-5-0.9-8.4-2.3-10.2l-19.5 22.6c-13.6 14.6-15.7 28.7-15.4 37.2 2.2-7.5 6.5-16.1 14.6-24.7z" />
                                    <path id="&lt;Path&gt;"
                                          d="m1204.4 80.6c1-0.4 2.2-0.6 3.4-0.7-0.1-0.6 0-1.1 0.3-1.6 4.5-6 1.6-8.5 1.2-8.8-1.7-1.2-3.7-1.2-6 0 0.9 0.9 2.1 2.4 2.3 4.9q0.3 2.9-1.2 6.2z" />
                                    <path id="&lt;Path&gt;"
                                          d="m1184.9 71.7l0.4-0.4c0.3-0.3 5.5-5.1 11-5.1 0.2 0 0.4 0 0.6 0 2.2-3.4 2.4-5.7 2.2-7-0.3-1.5-1.3-2.2-1.3-2.2-0.1-0.1-0.3-0.2-0.4-0.4-0.9-1-2-1.5-3.3-1.5-3.1-0.1-6.9 2.7-8.1 3.8l-6.6 6.6q-0.2 0.3-0.5 0.6c1.3 0.4 2.5 0.9 3.5 1.8 0 0 1.9 1.1 2.5 3.8z" />
                                    <path id="&lt;Path&gt;"
                                          d="m1213.6 104.8q-1.1-1.1-2.4-1.1c-2 0-3.9 1.7-3.9 1.7l-32.8 33c-0.8 0.8-2.1 0.8-2.9 0-0.9-0.8-0.9-2.1-0.1-2.9l33.8-36.5c5-4.4 7.7-8.4 7.6-11.4-0.1-1.8-1.2-2.7-1.3-2.8q-1.3-0.9-2.9-0.9c-3.2 0-6.1 3.1-6.2 3.1l-38.7 39c-0.8 0.8-2.1 0.8-3 0-0.8-0.8-0.8-2.1 0-2.9l30.6-32.9c9.3-8.4 10.3-13.2 10-15.4-0.1-1.7-1.2-2.5-1.3-2.5q-0.2-0.1-0.4-0.4c-1-1-2.1-1.5-3.4-1.5-3.2 0-6.8 2.8-8 3.8l-32.8 35.4c-0.8 0.9-2.2 0.9-3 0.2-0.9-0.8-0.9-2.2-0.1-3l24.6-27c3.7-3.7 4-5.9 3.9-6.8-0.1-1.1-0.9-1.6-0.9-1.6-1.2-1-2.3-1.4-3.5-1.4-4 0-8.9 4.2-10.5 5.8l-27.9 29.7c-6.8 7.3-9.8 8.1-11.5 8.1-1.3 0-2.1-0.5-2.7-1.1-1-0.6-1.7-1.6-2-2.8-0.7-3.7 3.5-8.6 4.8-10 4.7-5.5 6.9-10.6 6.4-15.3-0.1-0.8-0.3-1.6-0.5-2.3l-0.2-0.6c-0.1-0.3-0.2-0.6-0.3-0.8q0 0-0.1 0l-1.1-3-2.8 3.4-17 19.7c-21.3 22.7-14.2 44.9-14.2 45.2q0.2 0.3 0.1 0.7c-0.5 9.7-6.2 13.9-6.4 14l-8.2 6.5c1.2 4.8 7 22.1 29.5 24.6l9.5-10.1c5.9-6.7 14.8-4.9 15.2-4.8q1.6 0.5 3.4 0.5c7.9 0 14.4-6.4 14.5-6.5l26.6-23.9 26.4-28.3c10-9.3 6.2-13.7 6.1-13.9z" />
                                    <path id="&lt;Path&gt;"
                                          d="m1086.2 158.9l1.8-1.5c0.3-0.2 4.3-3.3 4.8-10.5-0.2-0.8-0.7-2.8-1-5.5-1.7 2.6-3.4 4-3.5 4l-8.1 6.4c0.6 1.2 2.1 3.7 6 7.1z" />
                              </g>
                        </g>
                        <g id="&lt;Group&gt;">
                              <g id="&lt;Group&gt;">
                              </g>
                              <path id="&lt;Compound Path&gt;" fill-rule="evenodd"
                                    d="m181.6 471.2c0 33.9-27.5 61.4-61.4 61.4-33.9 0-61.4-27.5-61.4-61.4 0-33.9 61.4-103.8 61.4-103.8 0 0 61.4 69.9 61.4 103.8zm-40-29.5h-16.4v-16h-10.7v16h-15.8v10.7h15.8v36.8h10.7v-36.8h16.4z" />
                        </g>
                        <g id="&lt;Group&gt;">
                              <g id="&lt;Group&gt;">
                              </g>
                              <g id="&lt;Group&gt;">
                                    <path id="&lt;Path&gt;"
                                          d="m495.4 89.7c-5.2-1.1-10.7-1.7-16.2-1.7-28.8 0-55.1 15.6-69 40.8 13.9 25.2 40.2 40.7 69 40.7 4.6 0 9.2-0.4 13.6-1.2-5.6-12.3-6.9-32.3-6.9-37.7 0-14.5 3.3-28.6 9.5-40.9z" />
                                    <path id="&lt;Path&gt;"
                                          d="m455.7 84.5c7.5-2.1 15.4-3.3 23.5-3.3 4.8 0 9.5 0.5 14.2 1.2-3.6-5.3-14.1-16.7-41.2-19.7 2.6 5.2 5.2 13.2 3.5 21.8z" />
                                    <path id="&lt;Path&gt;"
                                          d="m403.3 127.2c0.7-1.2 1.4-2.4 2.1-3.6l-42.6-18.7v50.9l44-19.5q-1.9-2.9-3.5-6c-0.5-0.9-0.5-2.1 0-3.1z" />
                                    <path id="&lt;Path&gt;"
                                          d="m443.3 184c12.3 0.4 18.1-5.4 20.5-9.1-6.3-1.2-12.5-3-18.4-5.5 0.5 6.1-0.8 11.2-2.1 14.6z" />
                                    <path id="&lt;Compound Path&gt;" fill-rule="evenodd"
                                          d="m548.2 128.8c-10.5 19-28.1 32.6-48.5 38-4.9-9.2-7-27.6-7-36.2 0-14 3.3-27.5 9.4-39.2 19.4 5.9 36.1 19.1 46.1 37.4zm-29.5-16.9c-2-2-5.2-2-7.2 0-2 2-2 5.3 0 7.3 2 2 5.2 2 7.2 0 2-2 2-5.3 0-7.3z" />
                              </g>
                        </g>
                        <g id="&lt;Group&gt;">
                              <g id="&lt;Group&gt;">
                              </g>
                              <g id="&lt;Group&gt;">
                                    <path id="&lt;Path&gt;" d="m829.7 542.8h-53.1v-9.2h53.1z" />
                                    <path id="&lt;Compound Path&gt;" fill-rule="evenodd"
                                          d="m826.1 501.4v27.6h-46v-27.6zm-36.1 4h-4.7v19.6h4.7z" />
                                    <path id="&lt;Compound Path&gt;" fill-rule="evenodd"
                                          d="m865.4 415.2c0 5.7-4.7 10.4-10.4 10.4q-0.8 0-1.6-0.2 0.6 1.5 0.6 3.1c0 4.7-3.8 8.5-8.5 8.5-4.8 0-8.6-3.8-8.6-8.5 0-1.1 0.3-2.2 0.7-3.2h-23.8v71.1h-21.3v-71.1h-22.8q0.6 1.5 0.6 3.2c0 4.7-3.8 8.5-8.5 8.5-4.7 0-8.6-3.8-8.6-8.5q0-1.6 0.6-3.1-0.8 0.2-1.6 0.2c-5.7 0-10.4-4.7-10.4-10.4 0-5.8 4.7-10.4 10.4-10.4q1.1 0 2 0.2c-0.6-1.2-1-2.6-1-4 0-4.7 3.9-8.5 8.6-8.5 4.7 0 8.5 3.8 8.5 8.5q0 1.6-0.5 3h22.7v-18.8q-1.2 0.5-2.6 0.5c-4.7 0-8.6-3.9-8.6-8.6 0-4.7 3.9-8.5 8.6-8.5q1.6 0 3 0.5-0.1-0.7-0.1-1.5c0-5.8 4.7-10.4 10.4-10.4 5.7 0 10.4 4.6 10.4 10.4q0 1-0.2 2c1.2-0.7 2.5-1 4-1 4.7 0 8.5 3.8 8.5 8.5 0 4.7-3.8 8.6-8.5 8.6-1.3 0-2.5-0.3-3.6-0.8v19.1h23.7q-0.6-1.4-0.6-3c0-4.7 3.8-8.5 8.6-8.5 4.7 0 8.5 3.8 8.5 8.5 0 1.4-0.3 2.8-1 4q1-0.2 2-0.2c5.7 0 10.4 4.6 10.4 10.4zm-19.1-5.7q-0.2 0-0.4 0v0.7q0.2-0.4 0.4-0.7z" />
                              </g>
                        </g>
                        <g id="&lt;Group&gt;">
                              <g id="&lt;Group&gt;">
                              </g>
                              <g id="&lt;Group&gt;">
                                    <path id="&lt;Path&gt;"
                                          d="m1162.6 491.8c0.5 1.5 0.9 3.2 0.9 4.9 0 8.8-7.2 15.9-16 15.9-8.8 0-15.9-7.1-15.9-15.9 0-1.7 0.3-3.4 0.8-4.9-27.6 1.8-45.9 8.3-45.9 14.3 0 6.3 22.8 12.8 60.8 12.8 38.1 0 60.8-6.5 60.8-12.8 0-6-18.1-12.5-45.5-14.3z" />
                                    <g id="&lt;Group&gt;">
                                          <path id="&lt;Path&gt;"
                                                d="m1147.3 478.3c-35.8 0-60.8 7.8-60.8 14.9v6.3c9.6-7.8 35.8-12 60.8-12 25 0 51.3 4.2 60.8 12v-6.3c0-7.1-25-14.9-60.8-14.9z" />
                                          <path id="&lt;Path&gt;" d="m1084.7 506.1z" />
                                          <path id="&lt;Path&gt;" d="m1210 506.1z" />
                                    </g>
                                    <path id="&lt;Compound Path&gt;" fill-rule="evenodd"
                                          d="m1197.6 481.3c-12.6-4.4-31.7-6.7-50.3-6.7-17.3 0-35.2 2-47.8 5.8 2.6-6.2 5-14.4 6.2-24.9 0-0.5 0.8-55.5 34.5-61.7h0.2q2.6-0.5 5.2-0.5l1.3-0.1q1.4 0 2.9 0c3.6 0 6.5 0.3 8.8 0.9h-0.1l2.5 0.9c29.4 9.8 30.2 60 30.2 60.7 1.2 10.9 3.7 19.3 6.4 25.6zm-48.8-84.6c0 0-27.5 1.3-33.6 28.9 0 0-1.7 6.9-4.4 25.6 0 0-3.2 19.1-6.7 25.2 12.6-4.8 17.1-48.5 17.1-48.5 4.1-24.7 27.6-31.2 27.6-31.2z" />
                                    <path id="&lt;Path&gt;"
                                          d="m1139.6 389.7c2-0.3 3.9-0.5 5.8-0.5 0.8-1.2 2-2 3.4-2 1.5 0 2.7 0.8 3.4 1.9q3.9 0.2 6.7 0.9c-0.7-5-4.9-8.9-10.1-8.9-5.1 0-9.3 3.8-10 8.8z" />
                                    <path id="&lt;Path&gt;"
                                          d="m1147.3 491.3c-3.7 0-7.3 0.1-10.8 0.2-0.8 1.6-1.2 3.3-1.2 5.2 0 6.7 5.5 12.2 12.2 12.2 6.7 0 12.2-5.5 12.2-12.2 0-1.9-0.4-3.6-1.1-5.1q-5.5-0.3-11.3-0.3z" />
                              </g>
                        </g>
                        <g id="&lt;Group&gt;">
                              <g id="&lt;Group&gt;">
                              </g>
                              <g id="&lt;Group&gt;">
                                    <g id="&lt;Group&gt;">
                                          <g id="&lt;Group&gt;">
                                                <path id="&lt;Compound Path&gt;" fill-rule="evenodd"
                                                      d="m113.1 763.3c-15.3 5.1-27.2 18-30.4 34.4q-0.5 2.5-0.7 4.9c-15.5 4.6-33 0.4-44.5-12.4-16.1-17.8-14.8-45.3 3-61.4 17.8-16.1 45.3-14.7 61.4 3.1 8.1 8.9 11.8 20.3 11.2 31.4zm-72 7.3c0-2.3-1.8-4.1-4-4.1-2.3 0-4.1 1.8-4.1 4.1 0 2.2 1.8 4 4.1 4 2.2 0 4-1.8 4-4zm17.7-47.1c0 0-29 6.9-26.6 39l7.6 0.4c0 0-6-28 19-39.4zm29.3 24.2h-14.1v-13.7h-9.2v13.7h-13.6v9.2h13.6v31.7h9.2v-31.7h14.1z" />
                                          </g>
                                    </g>
                                    <path id="&lt;Compound Path&gt;" fill-rule="evenodd"
                                          d="m168 814.3c-3.8 19.5-20.9 33.6-40.7 33.6-2.7 0-5.4-0.2-8-0.7-10.9-2.1-20.3-8.4-26.6-17.6-6.2-9.2-8.4-20.2-6.3-31.1 3.8-19.6 20.9-33.7 40.8-33.7 2.6 0 5.3 0.2 7.9 0.7 10.9 2.1 20.3 8.4 26.6 17.6 6.2 9.2 8.4 20.3 6.3 31.2zm-69.9 15.7l6.3-4.2c0 0-21.6-18.8-8.5-42.9 0 0-19 22.9 2.2 47.1zm12 1.2c-1.4-1.8-3.9-2.2-5.7-0.8-1.8 1.3-2.1 3.8-0.8 5.6 1.4 1.8 3.9 2.2 5.7 0.8 1.8-1.3 2.1-3.9 0.8-5.6zm37.1-5.4l-19.1-25.3 11.3-8.5-5.5-7.4-11.3 8.5-8.2-10.9-7.3 5.5 8.2 10.9-10.8 8.2 5.5 7.3 10.8-8.1 19.1 25.3z" />
                                    <g id="&lt;Group&gt;">
                                          <g id="&lt;Group&gt;">
                                                <path id="&lt;Compound Path&gt;" fill-rule="evenodd"
                                                      d="m186.3 789.4c-5.3 2-10.7 2.9-16 2.9-1.3-4-3.2-7.8-5.5-11.3-1.9-2.7-3.9-5.1-6.2-7.3l6.2 2.4 11.4-29.6 13.2 5.1 3.3-8.6-13.2-5 4.9-12.8-8.6-3.3-4.9 12.8-12.7-4.9-3.3 8.5 12.7 4.9-11 28.7c-5.9-5-13-8.5-20.8-10-2.2-0.5-4.5-0.7-6.8-0.8-6.3-21.5 4.8-44.6 26-52.8 22.4-8.6 47.6 2.5 56.2 24.9 8.6 22.4-2.5 47.6-24.9 56.2zm-48.1-47.1c-2.1-0.9-4.4 0.2-5.2 2.3-0.8 2.1 0.2 4.4 2.3 5.2 2.1 0.8 4.5-0.2 5.3-2.3 0.8-2.1-0.3-4.4-2.4-5.2zm35.8-32.4c0 0-29.6-4-38.8 26.8l6.9 3.2c0 0 4.4-28.3 31.9-30z" />
                                          </g>
                                    </g>
                              </g>
                        </g>
                        <g id="&lt;Group&gt;">
                              <g id="&lt;Group&gt;">
                              </g>
                              <g id="&lt;Group&gt;">
                                    <g id="&lt;Group&gt;">
                                          <g id="&lt;Group&gt;">
                                                <path id="&lt;Path&gt;"
                                                      d="m477.5 719.9c-3.3 5.7-3.5 12.9 0 18.9 3.5 6.1 9.9 9.5 16.4 9.5 3.3-5.7 3.5-12.9 0-19-3.5-6-9.9-9.4-16.4-9.4z" />
                                                <path id="&lt;Path&gt;"
                                                      d="m471 744.3c-3.3 5.7-3.5 12.9 0 19 3.5 6 9.9 9.4 16.4 9.4 3.3-5.7 3.5-12.9 0-19-3.5-6-9.9-9.4-16.4-9.4z" />
                                                <path id="&lt;Path&gt;"
                                                      d="m462.4 768.9c-3.2 5.7-3.5 12.9 0.1 19 3.5 6.1 9.9 9.5 16.4 9.4 3.3-5.6 3.5-12.8 0-18.9-3.5-6.1-9.9-9.5-16.5-9.5z" />
                                                <path id="&lt;Path&gt;"
                                                      d="m456.1 792.6c-3.2 5.7-3.5 12.9 0 19 3.6 6 9.9 9.4 16.5 9.4 3.2-5.6 3.5-12.9 0-18.9-3.5-6.1-9.9-9.5-16.5-9.5z" />
                                                <path id="&lt;Path&gt;"
                                                      d="m530.8 734.1c0 6.6-3.4 12.9-9.5 16.4-6.1 3.6-13.3 3.3-19 0.1 0-6.6 3.4-13 9.5-16.5 6.1-3.5 13.3-3.3 19 0z" />
                                                <path id="&lt;Path&gt;"
                                                      d="m524.3 758.5c0 6.6-3.4 12.9-9.5 16.4-6.1 3.6-13.3 3.3-19 0.1 0-6.6 3.4-13 9.5-16.5 6.1-3.5 13.3-3.3 19 0z" />
                                                <path id="&lt;Path&gt;"
                                                      d="m518.9 784c0 6.5-3.4 12.9-9.5 16.4-6 3.5-13.2 3.3-18.9 0 0-6.5 3.4-12.9 9.4-16.4 6.1-3.5 13.3-3.3 19 0z" />
                                                <path id="&lt;Path&gt;"
                                                      d="m512.6 807.7c0 6.5-3.4 12.9-9.5 16.4-6 3.5-13.3 3.3-18.9 0 0-6.5 3.3-12.9 9.4-16.4 6.1-3.5 13.3-3.3 19 0z" />
                                                <path id="&lt;Path&gt;"
                                                      d="m510.5 701c-6.3 1.7-11.6 6.6-13.4 13.4-1.8 6.8 0.3 13.7 4.9 18.3 6.4-1.7 11.6-6.6 13.4-13.4 1.9-6.8-0.3-13.7-4.9-18.3z" />
                                                <g id="&lt;Group&gt;">
                                                      <g id="&lt;Group&gt;">
                                                            <path id="&lt;Path&gt;"
                                                                  d="m501.4 737.7l-27.6 114.7-6.8-1.8 33.2-113.4c0 0 1.8-4.6 1.2 0.5z" />
                                                      </g>
                                                </g>
                                          </g>
                                    </g>
                                    <g id="&lt;Group&gt;">
                                          <g id="&lt;Group&gt;">
                                                <path id="&lt;Path&gt;"
                                                      d="m380.3 750.6c0.1 5.2 3 10.1 7.9 12.8 5 2.6 10.7 2.2 15.1-0.5-0.2-5.2-3-10.2-8-12.8-4.9-2.7-10.6-2.3-15 0.5z" />
                                                <path id="&lt;Path&gt;"
                                                      d="m386.1 769.8c0.2 5.2 3 10.1 8 12.8 4.9 2.6 10.6 2.2 15-0.5-0.2-5.2-3-10.2-7.9-12.8-5-2.7-10.7-2.3-15.1 0.5z" />
                                                <path id="&lt;Path&gt;"
                                                      d="m390.7 790c0.2 5.2 3 10.1 7.9 12.8 5 2.6 10.7 2.2 15.1-0.5-0.2-5.2-3-10.2-8-12.8-4.9-2.7-10.6-2.3-15 0.5z" />
                                                <path id="&lt;Path&gt;"
                                                      d="m396.3 808.6c0.2 5.2 3.1 10.2 8 12.8 4.9 2.6 10.6 2.2 15-0.5-0.1-5.2-3-10.2-7.9-12.8-4.9-2.6-10.6-2.2-15.1 0.5z" />
                                                <path id="&lt;Path&gt;"
                                                      d="m422.2 737.9c2.8 4.4 3.1 10.1 0.5 15-2.6 4.9-7.6 7.8-12.8 8-2.7-4.5-3.1-10.2-0.5-15.1 2.6-4.9 7.6-7.8 12.8-7.9z" />
                                                <path id="&lt;Path&gt;"
                                                      d="m428 757.1c2.8 4.4 3.2 10.1 0.5 15-2.6 4.9-7.6 7.8-12.8 8-2.7-4.5-3.1-10.2-0.5-15.1 2.7-4.9 7.6-7.8 12.8-7.9z" />
                                                <path id="&lt;Path&gt;"
                                                      d="m435.1 776.5c2.8 4.4 3.1 10.1 0.5 15-2.6 5-7.6 7.8-12.8 8-2.7-4.4-3.1-10.1-0.5-15.1 2.6-4.9 7.6-7.7 12.8-7.9z" />
                                                <path id="&lt;Path&gt;"
                                                      d="m440.8 795.1c2.7 4.4 3.1 10.2 0.5 15.1-2.7 4.9-7.6 7.8-12.8 7.9-2.8-4.4-3.2-10.1-0.5-15 2.6-4.9 7.6-7.8 12.8-8z" />
                                                <path id="&lt;Path&gt;"
                                                      d="m394.7 724c-3.6 3.8-5.1 9.3-3.5 14.6 1.6 5.4 6 9.1 11 10.3 3.6-3.8 5.1-9.3 3.5-14.6-1.7-5.4-6-9.2-11-10.3z" />
                                                <g id="&lt;Group&gt;">
                                                      <g id="&lt;Group&gt;">
                                                            <path id="&lt;Path&gt;"
                                                                  d="m403.9 752.6l29.4 89-5.4 1.6-25-90.5c0 0-0.7-3.8 1-0.1z" />
                                                      </g>
                                                </g>
                                          </g>
                                    </g>
                              </g>
                        </g>
                        <g id="&lt;Group&gt;">
                              <g id="&lt;Group&gt;">
                              </g>
                              <path id="&lt;Compound Path&gt;" fill-rule="evenodd"
                                    d="m1226.5 787.2c0 26-35.4 35-79.2 35-43.7 0-79.2-9-79.2-35 0-18 17.1-38 42.1-48.6q0.2 1 0.4 1.9 1.5 6.7 2.7 13.6c0.9 4.6 1.7 9.2 2.8 13.9 1.4-4.6 2-9.5 2-14.3 0-4.9-0.5-9.7-1.5-14.5q-0.3-1.4-0.7-2.8c4.1-1.4 8.4-2.5 12.8-3.4q1.1 5.1 2.2 10.2 1.4 6.7 2.7 13.6c0.9 4.6 1.6 9.2 2.7 13.9 1.5-4.6 2-9.5 2-14.3 0.1-4.9-0.5-9.7-1.5-14.5q-1-5-2.8-9.8c4.3-0.6 8.8-1 13.3-1 0.6 0 1.2 0.1 1.8 0.1q1.1 4.6 2 9.3 1.5 6.7 2.7 13.6c0.9 4.6 1.7 9.2 2.7 13.9 1.5-4.6 2.1-9.5 2.1-14.3 0-4.9-0.5-9.7-1.5-14.5q-0.9-3.9-2.1-7.8c5.1 0.4 10.1 1.3 15 2.5q0.7 3.3 1.4 6.6 1.4 6.7 2.7 13.6c0.9 4.6 1.6 9.2 2.7 13.9 1.5-4.6 2-9.5 2-14.3 0.1-4.9-0.5-9.7-1.5-14.5q-0.3-1.7-0.8-3.5c29.3 9.4 50 31.7 50 51.5zm-10.6-5.5c0-1.1 0.2 2.1 0-1.1-2.7 15.3-32.5 22.8-68.6 22.8-36.1 0-65.8-5.2-68.5-20.5q0 0 0 0.1c1.1 21.5 31.4 29 68.5 29 37.9 0 68.6-7.8 68.6-30.3zm-137.2 0c0-1.1-0.1 2.3 0.1 1.3q-0.1-0.7-0.1-1.3z" />
                        </g>
                        <g id="&lt;Group&gt;">
                              <g id="&lt;Group&gt;">
                              </g>
                              <g id="&lt;Group&gt;">
                                    <g id="&lt;Group&gt;">
                                          <path id="&lt;Path&gt;"
                                                d="m831.9 768c6.6 0 12-5.3 12-12 0-5.1-7.6-18.9-12-26.3-4.4 7.4-12 21.2-12 26.3 0 6.7 5.4 12 12 12z" />
                                          <path id="&lt;Path&gt;"
                                                d="m831.9 787.9c11.1 0 18.5-3.5 19.2-6.1-0.7-2.3-6.5-5.2-15.6-5.8v5.8c0 2-1.6 3.6-3.6 3.6-1.9 0-3.5-1.6-3.5-3.6v-5.8c-9.1 0.6-15 3.5-15.6 5.8 0.7 2.6 8 6.1 19.1 6.1z" />
                                          <path id="&lt;Path&gt;"
                                                d="m830.2 771.6v10.2c0 0.9 0.8 1.7 1.7 1.7 1 0 1.7-0.8 1.7-1.7v-10.2c-0.5 0.1-1.1 0.2-1.7 0.2-0.6 0-1.1-0.1-1.7-0.2z" />
                                          <path id="&lt;Path&gt;"
                                                d="m786.6 731.7c6.6 0 12-5.4 12-12 0-5.1-7.6-19-12-26.3-4.4 7.3-12 21.2-12 26.3 0 6.6 5.4 12 12 12z" />
                                          <path id="&lt;Path&gt;"
                                                d="m786.6 751.5c11 0 18.4-3.4 19.1-6-0.6-2.3-6.5-5.2-15.6-5.9v5.8c0 2-1.6 3.6-3.5 3.6-2 0-3.6-1.6-3.6-3.6v-5.8c-9.1 0.7-15 3.6-15.6 5.9 0.7 2.6 8.1 6 19.2 6z" />
                                          <path id="&lt;Compound Path&gt;" fill-rule="evenodd"
                                                d="m851.1 786.4v77c0 2.7-7.4 6.5-19.2 6.5-11.7 0-19.2-3.8-19.2-6.5v-77c4.4 2.9 11.9 4.4 19.2 4.4 7.3 0 14.9-1.5 19.2-4.4zm-4.2 75.8c0 0-20.3 1.2-24.1-8.2l-6.1-61.6v66.3c0 0 7 9.9 30.2 3.5z" />
                                          <path id="&lt;Compound Path&gt;" fill-rule="evenodd"
                                                d="m786.6 754.5c7.3 0 14.8-1.5 19.2-4.4v104.3c0 2.7-7.5 6.5-19.2 6.5-11.8 0-19.3-3.8-19.3-6.5v-104.3c4.4 2.9 12 4.4 19.3 4.4zm12.3 100.6c-5.8 0-18.4-1-21.4-8.2l-3.8-39.3-3.5-52.1v96.1c0 0 4.1 5.8 16.4 5.6 4 0.1 9-0.5 15.1-2.2 0 0-0.6 0.1-1.5 0.1q0.1 0 0.2 0c0 0-0.6 0-1.5 0z" />
                                          <path id="&lt;Path&gt;"
                                                d="m784.9 735.3v10.1c0 1 0.7 1.7 1.7 1.7 0.9 0 1.7-0.7 1.7-1.7v-10.1c-0.6 0-1.2 0.1-1.7 0.1-0.6 0-1.2-0.1-1.7-0.1z" />
                                    </g>
                                    <path id="&lt;Path&gt;"
                                          d="m888.5 705.9c-15.2 4-18.5 7.3-22.5 22.5-4-15.2-7.3-18.5-22.4-22.5 15.1-4 18.4-7.3 22.4-22.4 4 15.1 7.3 18.4 22.5 22.4z" />
                                    <path id="&lt;Path&gt;"
                                          d="m751.9 737.6c-11.2 3-13.6 5.4-16.5 16.6-3-11.2-5.4-13.6-16.6-16.6 11.2-2.9 13.6-5.3 16.6-16.5 2.9 11.2 5.3 13.6 16.5 16.5z" />
                              </g>
                        </g>
                  </g>
            </g>
      </g>
</svg>