<svg version="1.2" xmlns="http://www.w3.org/2000/svg" viewBox="0 0 199 199" width="199" height="199">
	<title>eucharist9-ai</title>
	<g id="_Artboards_">
	</g>
	<g id="Layer 1">
		<g id="&lt;Group&gt;">
			<g id="&lt;Group&gt;">
				<g id="&lt;Group&gt;">
					<g id="&lt;Group&gt;">
						<g id="&lt;Group&gt;">
							<g id="&lt;Group&gt;">
								<path id="&lt;Path&gt;"
									d="m121.5 44.9c-3.3 5.7-3.5 12.9 0 18.9 3.5 6.1 9.9 9.5 16.4 9.5 3.3-5.7 3.5-12.9 0-19-3.5-6-9.9-9.4-16.4-9.4z" />
								<path id="&lt;Path&gt;"
									d="m115 69.3c-3.3 5.7-3.5 12.9 0 19 3.5 6 9.9 9.4 16.4 9.4 3.3-5.7 3.5-12.9 0-19-3.5-6-9.9-9.4-16.4-9.4z" />
								<path id="&lt;Path&gt;"
									d="m106.4 93.9c-3.2 5.7-3.5 12.9 0.1 19 3.5 6.1 9.9 9.5 16.4 9.4 3.3-5.6 3.5-12.8 0-18.9-3.5-6.1-9.9-9.5-16.5-9.5z" />
								<path id="&lt;Path&gt;"
									d="m100.1 117.6c-3.2 5.7-3.5 12.9 0 19 3.6 6 9.9 9.4 16.5 9.4 3.2-5.6 3.5-12.9 0-18.9-3.5-6.1-9.9-9.5-16.5-9.5z" />
								<path id="&lt;Path&gt;"
									d="m174.8 59.1c0 6.6-3.4 12.9-9.5 16.4-6.1 3.6-13.3 3.3-19 0.1 0-6.6 3.4-13 9.5-16.5 6.1-3.5 13.3-3.3 19 0z" />
								<path id="&lt;Path&gt;"
									d="m168.3 83.5c0 6.6-3.4 12.9-9.5 16.4-6.1 3.6-13.3 3.3-19 0.1 0-6.6 3.4-13 9.5-16.5 6.1-3.5 13.3-3.3 19 0z" />
								<path id="&lt;Path&gt;"
									d="m162.9 109c0 6.5-3.4 12.9-9.5 16.4-6 3.5-13.2 3.3-18.9 0 0-6.5 3.4-12.9 9.4-16.4 6.1-3.5 13.3-3.3 19 0z" />
								<path id="&lt;Path&gt;"
									d="m156.6 132.7c0 6.5-3.4 12.9-9.5 16.4-6 3.5-13.3 3.3-18.9 0 0-6.5 3.3-12.9 9.4-16.4 6.1-3.5 13.3-3.3 19 0z" />
								<path id="&lt;Path&gt;"
									d="m154.5 26c-6.3 1.7-11.6 6.6-13.4 13.4-1.8 6.8 0.3 13.7 4.9 18.3 6.4-1.7 11.6-6.6 13.4-13.4 1.9-6.8-0.3-13.7-4.9-18.3z" />
								<g id="&lt;Group&gt;">
									<g id="&lt;Group&gt;">
										<path id="&lt;Path&gt;"
											d="m145.4 62.7l-27.6 114.7-6.8-1.8 33.2-113.4c0 0 1.8-4.6 1.2 0.5z" />
									</g>
								</g>
							</g>
						</g>
						<g id="&lt;Group&gt;">
							<g id="&lt;Group&gt;">
								<path id="&lt;Path&gt;"
									d="m24.3 75.6c0.1 5.2 3 10.1 7.9 12.8 5 2.6 10.7 2.2 15.1-0.5-0.2-5.2-3-10.2-8-12.8-4.9-2.7-10.6-2.3-15 0.5z" />
								<path id="&lt;Path&gt;"
									d="m30.1 94.8c0.2 5.2 3 10.1 8 12.8 4.9 2.6 10.6 2.2 15-0.5-0.2-5.2-3-10.2-7.9-12.8-5-2.7-10.7-2.3-15.1 0.5z" />
								<path id="&lt;Path&gt;"
									d="m34.7 115c0.2 5.2 3 10.1 7.9 12.8 5 2.6 10.7 2.2 15.1-0.5-0.2-5.2-3-10.2-8-12.8-4.9-2.7-10.6-2.3-15 0.5z" />
								<path id="&lt;Path&gt;"
									d="m40.3 133.6c0.2 5.2 3.1 10.2 8 12.8 4.9 2.6 10.6 2.2 15-0.5-0.1-5.2-3-10.2-7.9-12.8-4.9-2.6-10.6-2.2-15.1 0.5z" />
								<path id="&lt;Path&gt;"
									d="m66.2 62.9c2.8 4.4 3.1 10.1 0.5 15-2.6 4.9-7.6 7.8-12.8 8-2.7-4.5-3.1-10.2-0.5-15.1 2.6-4.9 7.6-7.8 12.8-7.9z" />
								<path id="&lt;Path&gt;"
									d="m72 82.1c2.8 4.4 3.2 10.1 0.5 15-2.6 4.9-7.6 7.8-12.8 8-2.7-4.5-3.1-10.2-0.5-15.1 2.7-4.9 7.6-7.8 12.8-7.9z" />
								<path id="&lt;Path&gt;"
									d="m79.1 101.5c2.8 4.4 3.1 10.1 0.5 15-2.6 5-7.6 7.8-12.8 8-2.7-4.4-3.1-10.1-0.5-15.1 2.6-4.9 7.6-7.7 12.8-7.9z" />
								<path id="&lt;Path&gt;"
									d="m84.8 120.1c2.7 4.4 3.1 10.2 0.5 15.1-2.7 4.9-7.6 7.8-12.8 7.9-2.8-4.4-3.2-10.1-0.5-15 2.6-4.9 7.6-7.8 12.8-8z" />
								<path id="&lt;Path&gt;"
									d="m38.7 49c-3.6 3.8-5.1 9.3-3.5 14.6 1.6 5.4 6 9.1 11 10.3 3.6-3.8 5.1-9.3 3.5-14.6-1.7-5.4-6-9.2-11-10.3z" />
								<g id="&lt;Group&gt;">
									<g id="&lt;Group&gt;">
										<path id="&lt;Path&gt;"
											d="m47.9 77.6l29.4 89-5.4 1.6-25-90.5c0 0-0.7-3.8 1-0.1z" />
									</g>
								</g>
							</g>
						</g>
					</g>
				</g>
			</g>
		</g>
	</g>
</svg>