<svg version="1.2" xmlns="http://www.w3.org/2000/svg" viewBox="0 0 197 197" width="512" height="512">
    <path
        d="m77.1 88.9q0.3 0.2 0.7 0.5c0.6-0.2 3-1.1 8.2-6.8l28-29.6c0.2-0.3 4.4-4.6 9.4-6.4l4.2-4.2c1.9-2.4 2.1-4 2-4.7-0.1-1.1-0.9-1.6-0.9-1.7-5.2-4.3-13.9 4.5-14 4.6l-26.4 28.8c-0.1 0.2-0.3 0.2-0.4 0.3-1 4.2-3.3 8.4-7 12.8-2.5 2.6-4.1 5.6-3.8 6.4z" />
    <path
        d="m59 78l20.9-24.2c0.4-0.6 1-0.8 1.7-0.7 1-5-0.9-8.4-2.3-10.2l-19.5 22.6c-13.6 14.6-15.7 28.7-15.4 37.2 2.2-7.5 6.5-16.1 14.6-24.7z" />
    <path
        d="m155.4 60.6c1-0.4 2.2-0.6 3.4-0.7-0.1-0.6 0-1.1 0.3-1.6 4.5-6 1.6-8.5 1.2-8.8-1.7-1.2-3.7-1.2-6 0 0.9 0.9 2.1 2.4 2.3 4.9q0.3 2.9-1.2 6.2z" />
    <path
        d="m135.9 51.7l0.4-0.4c0.3-0.3 5.5-5.1 11-5.1 0.2 0 0.4 0 0.6 0 2.2-3.4 2.4-5.7 2.2-7-0.3-1.5-1.3-2.2-1.3-2.2-0.1-0.1-0.3-0.2-0.4-0.4-0.9-1-2-1.5-3.3-1.5-3.1-0.1-6.9 2.7-8.1 3.8l-6.6 6.6q-0.2 0.3-0.5 0.6c1.3 0.4 2.5 0.9 3.5 1.8 0 0 1.9 1.1 2.5 3.8z" />
    <path
        d="m164.6 84.8q-1.1-1.1-2.4-1.1c-2 0-3.9 1.7-3.9 1.7l-32.8 33c-0.8 0.8-2.1 0.8-2.9 0-0.9-0.8-0.9-2.1-0.1-2.9l33.8-36.5c5-4.4 7.7-8.4 7.6-11.4-0.1-1.8-1.2-2.7-1.3-2.8q-1.3-0.9-2.9-0.9c-3.2 0-6.1 3.1-6.2 3.1l-38.7 39c-0.8 0.8-2.1 0.8-3 0-0.8-0.8-0.8-2.1 0-2.9l30.6-32.9c9.3-8.4 10.3-13.2 10-15.4-0.1-1.7-1.2-2.5-1.3-2.5q-0.2-0.1-0.4-0.4c-1-1-2.1-1.5-3.4-1.5-3.2 0-6.8 2.8-8 3.8l-32.8 35.4c-0.8 0.9-2.2 0.9-3 0.2-0.9-0.8-0.9-2.2-0.1-3l24.6-27c3.7-3.7 4-5.9 3.9-6.8-0.1-1.1-0.9-1.6-0.9-1.6-1.2-1-2.3-1.4-3.5-1.4-4 0-8.9 4.2-10.5 5.8l-27.9 29.7c-6.8 7.3-9.8 8.1-11.5 8.1-1.3 0-2.1-0.5-2.7-1.1-1-0.6-1.7-1.6-2-2.8-0.7-3.7 3.5-8.6 4.8-10 4.7-5.5 6.9-10.6 6.4-15.3-0.1-0.8-0.3-1.6-0.5-2.3l-0.2-0.6c-0.1-0.3-0.2-0.6-0.3-0.8q0 0-0.1 0l-1.1-3-2.8 3.4-17 19.7c-21.3 22.7-14.2 44.9-14.2 45.2q0.2 0.3 0.1 0.7c-0.5 9.7-6.2 13.9-6.4 14l-8.2 6.5c1.2 4.8 7 22.1 29.5 24.6l9.5-10.1c5.9-6.7 14.8-4.9 15.2-4.8q1.6 0.5 3.4 0.5c7.9 0 14.4-6.4 14.5-6.5l26.6-23.9 26.4-28.3c10-9.3 6.2-13.7 6.1-13.9z" />
    <path
        d="m37.2 138.9l1.8-1.5c0.3-0.2 4.3-3.3 4.8-10.5-0.2-0.8-0.7-2.8-1-5.5-1.7 2.6-3.4 4-3.5 4l-8.1 6.4c0.6 1.2 2.1 3.7 6 7.1z" />
</svg>